<?xml version="1.0" encoding="UTF-8"?>
<svg xmlns="http://www.w3.org/2000/svg" viewBox="0 0 725 725">
  <path d="M466.67,422.27v140c0,116.67-46.67,163.33-163.33,163.33h-140C46.67,725.6,0,678.94,0,562.27v-140c0-116.67,46.67-163.33,163.33-163.33h140c116.67,0,163.33,46.67,163.33,163.33Z" fill="white"/>
  <path d="M562.27,0h-140c-102.77,0-150.97,36.47-161.01,124.63-2.1,18.44,13.17,33.7,31.74,33.7h69.27c140,0,205,65,205,205v69.27c0,18.56,15.25,33.84,33.7,31.74,88.16-10.04,124.63-58.24,124.63-161.01v-140C725.6,46.67,678.94,0,562.27,0Z" fill="white"/>
</svg>